<?xml version="1.0" encoding="UTF-8"?>
<svg id="Layer_2" data-name="Layer 2" xmlns="http://www.w3.org/2000/svg" viewBox="0 0 405 408">
  <defs>
    <style>
      .cls-1 {
        fill: #6caf24;
      }

      .cls-1, .cls-2, .cls-3 {
        stroke-width: 0px;
      }

      .cls-2 {
        fill: #3c4151;
      }

      .cls-3 {
        fill: #ff9d02;
      }
    </style>
  </defs>
  <g id="Layer_1-2" data-name="Layer 1">
    <path class="cls-3" d="M362.57,330.29c-14.43,17.36-47.57,52.28-99.87,68.55-27.86,8.66-51.94,9.17-60.2,9.17-79.61,0-148.5-46.28-181.56-113.62,12.03,7.81,22.64,13.87,31.13,18.42,9.18,4.93,17.05,8.74,23.49,11.66,9.64,4.39,16.12,6.76,18.94,7.77,5.67,2.02,16.55,5.67,30.86,7.77,8.06,1.17,14.85,1.83,23.14,0,10.45-2.33,15.39-7.11,23.14-11.66,13.23-7.81,25.19-9.36,42.43-11.66,27.35-3.61,28.23,3.92,54,0,19.75-2.99,30.39-9.09,34.71-3.89,3.63,4.39.35,13.83-3.86,19.43-5.75,7.69-14.39,9.75-23.14,11.66-14.7,3.22-22.37.7-46.29,3.89-5.98.82-11.26,1.75-11.57,3.89-.39,2.56,6.44,5.79,11.57,7.77,11.42,4.47,17.86,6.96,27,7.77,14.77,1.28,28.16-2.64,38.15-6.99,7.32-3.19,12.91-6.66,15.85-8.55,9.38-6.04,15.73-12.04,17.36-13.6,10.34-9.93,10.66-14.22,19.29-19.43,3.62-2.19,11.54-6.97,15.43-3.89,2.95,2.34,2.92,8.71,0,15.54Z"/>
    <path class="cls-2" d="M405,204c0,30.99-9.4,61.6-9.4,61.6-6.26,20.88-14.56,37.42-21.46,49.14-.51-1-1.24-2.49-2.06-4.34-1.01-2.28-1.13-2.97-1.61-3.76-1.87-3.06-4.51-4.39-6.05-5.19-7.96-4.11-17.01-1.1-19.21-.31,12.21-17.78,30.75-50.81,30.86-93.26.2-80.67-66.23-177.02-169.71-178.74C101.55,27.4,34.04,123.98,30.86,204c-1.68,42.26,14.73,76.01,25.96,94.58-15.89-11.31-31.78-22.61-47.71-33.92C3.2,245.5,0,225.14,0,204,0,91.35,90.68,0,202.5,0s202.5,91.35,202.5,204Z"/>
    <path class="cls-1" d="M199.5,85.5c-.77,3-2.19,7.34-5,12-1.21,2-4.25,6.69-13,14-4.75,3.97-6.3,4.63-17,12-6.76,4.66-11.91,8.2-18,13-9.73,7.67-14.67,11.63-18,18-1.33,2.55-3.99,7.76-4,15,0,4.19-.06,10.4,4,15,2.85,3.23,6.45,4.23,7,8,.16,1.09.1,2.64,0,5-.15,3.67-.49,4.23,0,5,1.04,1.64,3.88,1.13,9,1,7.28-.19,11.93.56,12,0,.1-.73-7.93-.57-10-5-1.27-2.72.62-4.72-1-8-.73-1.48-1.37-1.26-4-4-2.04-2.12-3.45-4.13-4-5-2.89-4.58-2.31-10.03-2-13,.15-1.42.94-7.83,6-15,1.16-1.65,3.48-4.66,15-13,6.05-4.38,6.36-4.24,19-13,0,0,6.11-4.23,14-11,.36-.31,2.54-2.19,5-5,1.92-2.19,2.65-3.39,3-4,1.11-1.95,1.69-3.74,2-5v-17Z"/>
    <path class="cls-1" d="M199.09,85.57c.77,3,2.19,7.34,5,12,1.21,2,4.25,6.69,13,14,4.75,3.97,6.3,4.63,17,12,6.76,4.66,11.91,8.2,18,13,9.73,7.67,14.67,11.63,18,18,1.33,2.55,3.99,7.76,4,15,0,4.19.06,10.4-4,15-2.85,3.23-6.45,4.23-7,8-.16,1.09-.1,2.64,0,5,.15,3.67.49,4.23,0,5-1.04,1.64-3.88,1.13-9,1-7.28-.19-11.93.56-12,0-.1-.73,7.93-.57,10-5,1.27-2.72-.62-4.72,1-8,.73-1.48,1.37-1.26,4-4,2.04-2.12,3.45-4.13,4-5,2.89-4.58,2.31-10.03,2-13-.15-1.42-.94-7.83-6-15-1.16-1.65-3.48-4.66-15-13-6.05-4.38-6.36-4.24-19-13,0,0-6.11-4.23-14-11-.36-.31-2.54-2.19-5-5-1.92-2.19-2.65-3.39-3-4-1.11-1.95-1.69-3.74-2-5v-17Z"/>
    <path class="cls-1" d="M321.42,232.27l-110.86,46.37,16.63,6.23-2.8,7.49-21.01-7.86h-7.45l-16.77,8.79-3.72-7.08,14.13-7.41-112.63-47.1c-2.03-.85-2.99-3.19-2.14-5.22.64-1.54,2.12-2.46,3.69-2.46.51,0,1.04.1,1.54.31l118.02,49.37c.57.24,1.06.59,1.45,1.02.25-.18.52-.33.81-.45l118.03-49.36c.5-.21,1.02-.31,1.54-.31,1.56,0,3.04.92,3.68,2.45.85,2.03-.11,4.37-2.14,5.22Z"/>
    <path class="cls-3" d="M290.5,222.5c-9.34-.49-16.65,2.48-18.89,3.42-11.36,4.76-36.47,16.53-69.11,33.51v-32.86c5.22-3.03,11.5-6.06,18.83-8.46,21.11-6.93,39.77-5.04,50.63-2.94-40.24-10.74-67.77,6.82-70.29,8.5-.2-.11-.43-.17-.67-.17-.46,0-.87.2-1.13.53-3.38-2.22-30.64-18.92-70.12-8.39,10.86-2.1,29.52-3.99,50.63,2.93,7.47,2.45,13.84,5.55,19.12,8.64v32.29c-10.51-5.9-19.43-10.61-26-14-30.76-15.85-42.3-19.34-53-21-9.51-1.48-21.56-2.02-22,0-.34,1.53,6.16,3.97,19,9,20.06,7.85,39.92,16.2,60,24,5.24,2.03,13.2,5.14,23,9,5.32-1.69,13.43-4.46,23.11-8.58,3.61-1.54,4.4-1.97,11.89-5.42,0,0,32.73-15.08,47.35-19.09.14-.04.82-.25,1.76-.49,3.36-.88,6.24-1.92,12-4,4.05-1.46,6.01-2.36,6-3-.03-1.64-6.65-3.13-12.11-3.42ZM201.03,227.44s.05-.03.08-.05c-.06.46-.09.6-.08.05Z"/>
  </g>
</svg>