<?xml version="1.0" encoding="utf-8"?>
<!-- Generator: Adobe Illustrator 27.5.0, SVG Export Plug-In . SVG Version: 6.00 Build 0)  -->
<svg version="1.1" xmlns="http://www.w3.org/2000/svg" xmlns:xlink="http://www.w3.org/1999/xlink" x="0px" y="0px"
	 viewBox="0 0 500 500" style="enable-background:new 0 0 500 500;" xml:space="preserve">
<g id="BACKGROUND">
	<rect style="fill:#FFFFFF;" width="500" height="500"/>
</g>
<g id="OBJECTS">
	<g>
		<g>
			<g>
				<ellipse style="fill:#E6F5FF;" cx="252.732" cy="401.913" rx="210.088" ry="13.135"/>
				<ellipse style="fill:#D4ECFF;" cx="174.882" cy="407.989" rx="37.013" ry="2.636"/>
				<ellipse style="fill:#D4ECFF;" cx="332.867" cy="405.628" rx="52.216" ry="3.79"/>
			</g>
			<g>
				<g>
					<path style="fill:#D4ECFF;" d="M70.132,237.243c47.724-31.735,28.968-122.106,112.854-122.106
						c83.887,0,36.814,46.487,121.304,27.892c84.49-18.595,49.854,102.15,98.974,119.922
						c59.176,21.409,77.248,79.663,32.589,134.208H65.304C65.304,397.159-1.081,284.598,70.132,237.243z"/>
					<g>
						<path style="fill:#D4ECFF;" d="M162.158,117.153l-0.139,0.118c0,0,0.09-0.053,0.259-0.144
							C162.238,117.136,162.197,117.144,162.158,117.153z"/>
						<path style="opacity:0.18;fill:#B3D9FF;" d="M435.389,397.056c44.659-54.545,26.587-112.798-32.589-134.208
							c-49.12-17.771-14.484-138.517-98.974-119.922c-84.49,18.595-37.417-27.892-121.304-27.892c-0.496,0-0.971,0.019-1.459,0.025
							c9.27,1.879,21.088,8.236,33.525,25.095c27.831,37.727,47.004,51.333,90.915,40.819
							c43.911-10.514-16.699,117.509,57.518,125.549c53.551,5.801,24.671,56.036-4.161,90.533H435.389z"/>
					</g>
				</g>
				<g>
					<g>
						<path style="fill:#FFAA00;" d="M427.956,233.559v25.439c0,6.679-5.47,12.149-12.159,12.149h-25.439
							c-6.679,0-12.149-5.47-12.149-12.149v-25.439c0-6.689,5.47-12.159,12.149-12.159h25.439
							C422.486,221.401,427.956,226.871,427.956,233.559z"/>
						<path style="fill:#FFFFFF;" d="M402.773,231.945c-7.27,0.244-13.193,6.155-13.45,13.424c-0.118,3.329,0.933,6.408,2.774,8.86
							c0.751,1.001,1.027,2.28,0.745,3.499l-0.888,3.829l4.688-2.064c0.899-0.396,1.907-0.462,2.854-0.197
							c1.481,0.415,3.06,0.593,4.697,0.484c6.969-0.462,12.577-6.118,12.975-13.09C417.637,238.462,410.962,231.67,402.773,231.945z
							 M397.076,246.667c-0.463,0-0.838-0.375-0.838-0.838c0-0.463,0.375-0.838,0.838-0.838c0.463,0,0.838,0.375,0.838,0.838
							C397.914,246.292,397.539,246.667,397.076,246.667z M403.033,246.667c-0.463,0-0.838-0.375-0.838-0.838
							c0-0.463,0.375-0.838,0.838-0.838c0.463,0,0.838,0.375,0.838,0.838C403.87,246.292,403.495,246.667,403.033,246.667z
							 M409.316,246.667c-0.463,0-0.838-0.375-0.838-0.838c0-0.463,0.375-0.838,0.838-0.838c0.463,0,0.838,0.375,0.838,0.838
							C410.154,246.292,409.779,246.667,409.316,246.667z"/>
					</g>
					<g>
						<path style="fill:#FFAA00;" d="M95.038,245.866v24.474c0,6.435-5.265,11.701-11.701,11.701H58.864
							c-6.435,0-11.701-5.265-11.701-11.701v-24.474c0-6.435,5.265-11.701,11.701-11.701h24.474
							C89.773,234.165,95.038,239.43,95.038,245.866z"/>
						<path style="fill:#FFFFFF;" d="M77.922,243.896H63.393c-3.819,0-6.943,3.124-6.943,6.943v14.529
							c0,3.819,3.125,6.943,6.943,6.943h14.529c3.819,0,6.943-3.125,6.943-6.943v-14.529
							C84.865,247.02,81.741,243.896,77.922,243.896z M76.021,259.301l-8.657,5.227c-0.92,0.556-2.094-0.107-2.094-1.182v-10.454
							c0-1.075,1.174-1.737,2.094-1.182l8.657,5.227C76.911,257.474,76.911,258.764,76.021,259.301z"/>
					</g>
					<g>
						<path style="fill:#53A4F4;" d="M266.283,127.638v25.913c0,6.811-5.573,12.384-12.384,12.384h-25.913
							c-6.811,0-12.384-5.573-12.384-12.384v-25.913c0-6.811,5.573-12.384,12.384-12.384h25.913
							C260.71,115.254,266.283,120.827,266.283,127.638z"/>
						<g>
							<path style="fill:#0D5DBC;" d="M224.494,142.935c-0.64,0.221-0.977,0.919-0.745,1.559l0.745,2.118
								c0.233,0.628,0.931,0.966,1.559,0.745l1.07-0.384l-1.571-4.41L224.494,142.935z"/>
							<path style="fill:#0D5DBC;" d="M237.561,148.599l-4.585,1.629c-0.023,0-0.035,0.011-0.058,0.023l2.153,6.086
								c0.058,0.175,0.209,0.291,0.384,0.314l4.422,0.477c0.337,0.035,0.605-0.303,0.489-0.628L237.561,148.599z"/>
							<path style="fill:#0D5DBC;" d="M257.462,144.586l-2.202-6.213c0.889-0.699,1.474-1.759,1.474-2.979
								c0-2.119-1.715-3.826-3.825-3.826c-0.02,0-0.039,0.003-0.059,0.004l-2.186-6.169c-0.298-0.842-1.223-1.283-2.065-0.984
								c-0.842,0.298-1.283,1.223-0.984,2.065l6.797,19.183c0.298,0.842,1.223,1.283,2.065,0.984
								C257.32,146.352,257.761,145.428,257.462,144.586z"/>
							<path style="fill:#0D5DBC;" d="M234.052,136.081l-5.446,1.93c-1.537,0.545-2.341,2.232-1.797,3.769l1.813,5.115
								c0.536,1.513,2.179,2.309,3.696,1.814l0.002,0.005c0.022,0,0.045-0.011,0.067-0.022c0.001,0,0.002,0,0.003-0.001l5.44-1.928
								l0.011,0.012c0,0,11.544-2.846,14.936-0.691l-6.687-18.871C244.812,131.023,234.052,136.081,234.052,136.081z"/>
						</g>
					</g>
				</g>
			</g>
			<g>
				<g>
					<g>
						<path style="fill:#53A4F4;" d="M113.725,374.314c-0.081-0.028,6.759-5.394,11.048-13.057
							c4.413-7.432,6.276-17.162-0.899-20.585c-10.184-4.448-0.905-20.496-8.562-21.605c-7.405-0.559-6.228,3.303-10.272-6.533
							c-4.489-9.792-11.954-7.763-20.713-13.27c-9.274-5.222-14.13,6.774-4.879,15.545c9.006,9.42-2.603,1.268-2.333,8.117
							c0.143,5.71,21.924,15.802,16.395,17.327c-5.407,0.974-7.191,6.007-3.378,10.383
							C99.253,360.485,113.779,373.957,113.725,374.314z"/>
						<path style="opacity:0.39;fill:#092B96;" d="M113.503,381.048c0.049-0.029,0.076-0.075,0.082-0.14
							c1.102-10.294,0.577-24.617-4.262-38.358c-0.012-0.036-0.025-0.072-0.037-0.107c0.015-0.033,0.03-0.066,0.044-0.099
							c1.699-3.729,2.66-7.946,3.371-12.143c0.236-1.384,0.45-2.781,0.662-4.183c0.012-0.08-0.008-0.126-0.072-0.161
							c-0.09-0.05-0.222-0.044-0.276,0.044c-0.013,0.022-0.023,0.049-0.027,0.08c-0.207,1.37-0.415,2.735-0.644,4.088
							c-0.653,3.87-1.519,7.767-2.99,11.277c-0.082,0.195-0.163,0.389-0.246,0.583c-0.075-0.209-0.15-0.417-0.227-0.626
							c-2.101-5.741-4.886-11.419-8.579-17.146c-0.033-0.051-0.065-0.101-0.098-0.152c0,0,0.086-0.143,0.086-0.143
							c0.018-0.032,0.023-0.053,0.023-0.082c-0.082-4.551-0.861-9.258-2.347-13.869c-0.026-0.081-0.069-0.123-0.14-0.136
							c-0.089-0.016-0.185,0.028-0.213,0.097c-0.014,0.034-0.013,0.075,0.003,0.126c1.361,4.223,2.128,8.538,2.3,12.732
							c0.012,0.292,0.023,0.584,0.033,0.876c-0.165-0.25-0.332-0.5-0.499-0.75c-3.59-5.349-7.858-10.548-13.111-15.637
							c-0.063-0.061-0.102-0.054-0.116-0.051c-0.056,0.01-0.111,0.065-0.135,0.133c-0.028,0.081-0.009,0.155,0.057,0.219
							c7.156,6.942,12.58,14.201,16.724,21.577c0.087,0.155,0.174,0.311,0.26,0.466c-0.166-0.027-0.332-0.054-0.498-0.081
							c-5.6-0.9-10.897-2.445-15.914-4.554c-0.059-0.025-0.1-0.025-0.136,0.043c-0.031,0.059-0.037,0.138-0.015,0.202
							c0.019,0.054,0.056,0.093,0.113,0.116c5.194,2.191,10.686,3.777,16.511,4.668c0.052,0.005,0.104,0.009,0.156,0.013
							c0.025,0.046,0.05,0.091,0.075,0.137c2.267,4.175,4.036,8.198,5.453,12.218c0.008,0.024,0.017,0.048,0.025,0.072
							c-0.004,0.024-0.009,0.048-0.013,0.072c-0.011,0.063,0.01,0.118,0.062,0.164c0.019,0.017,0.038,0.034,0.056,0.05
							c0.008,0.024,0.017,0.048,0.025,0.072c1.228,3.557,2.267,7.365,3.083,11.607c0.044,0.232,0.088,0.463,0.131,0.695
							c-0.177-0.152-0.355-0.304-0.533-0.454c-5.03-4.261-10.506-7.666-16.074-10.117c-0.08-0.035-0.15-0.018-0.207,0.051
							c-0.041,0.05-0.061,0.117-0.05,0.166c0.005,0.023,0.02,0.057,0.083,0.085c5.86,2.581,11.593,6.206,16.807,10.755
							c0.025,0.022,0.05,0.043,0.075,0.065c0.006,0.033,0.012,0.066,0.018,0.099c1.285,7.43,1.803,15.583,0.865,25.217
							c-0.009,0.088,0.027,0.112,0.044,0.123C113.333,381.089,113.434,381.089,113.503,381.048L113.503,381.048z"/>
					</g>
					<g>
						<path style="fill:#328DD8;" d="M133.926,391.233c-0.2,0.764-6.747-16.955-24.387-29.936
							c-16.402-13.516-43.899-22.294-57.393-16.01c-26.213,11.891-6.219,24.646,7.558,20.347
							c14.291-3.256,2.977,16.973,18.632,12.775c15.535-2.911,15.181,2.428,24.046,1.783
							C112.014,378.962,134.552,390.62,133.926,391.233z"/>
					</g>
				</g>
				<g>
					<g>
						<path style="fill:#328DD8;" d="M399.029,364.001c0.051-0.069-8.625-0.625-16.496-4.519
							c-7.843-3.633-14.882-10.604-10.901-17.484c5.882-9.428-10.846-17.415-5.158-22.66c5.79-4.649,7.004-0.799,4.776-11.198
							c-1.837-10.614,5.468-13.163,9.576-22.659c4.695-9.552,15.485-2.405,12.815,10.06c-2.099,12.862,2.864-0.426,6.515,5.375
							c3.112,4.79-9.143,25.431-3.721,23.563c5.01-2.255,9.328,0.887,8.659,6.652C403.144,344.411,398.783,363.737,399.029,364.001z
							"/>
						<path style="opacity:0.39;fill:#092B96;" d="M403.021,369.429c-0.057,0.004-0.105-0.019-0.147-0.069
							c-6.731-7.866-14.399-19.975-18.18-34.044c-0.01-0.036-0.02-0.073-0.03-0.11c-0.031-0.019-0.061-0.038-0.092-0.056
							c-3.51-2.114-6.688-5.048-9.648-8.107c-0.977-1.008-1.944-2.039-2.911-3.075c-0.056-0.059-0.064-0.108-0.032-0.174
							c0.046-0.092,0.158-0.162,0.252-0.12c0.023,0.01,0.046,0.027,0.068,0.051c0.945,1.013,1.889,2.021,2.843,3.007
							c2.728,2.822,5.646,5.547,8.844,7.609c0.177,0.114,0.355,0.228,0.532,0.341c-0.056-0.215-0.112-0.429-0.167-0.644
							c-1.514-5.923-2.429-12.18-2.622-18.992c-0.002-0.06-0.003-0.12-0.005-0.18c0,0-0.152-0.069-0.152-0.069
							c-0.033-0.016-0.049-0.031-0.065-0.055c-2.507-3.8-4.526-8.122-5.909-12.765c-0.024-0.082-0.013-0.141,0.038-0.191
							c0.065-0.064,0.168-0.082,0.23-0.041c0.031,0.02,0.053,0.054,0.068,0.106c1.265,4.252,3.074,8.245,5.304,11.801
							c0.156,0.248,0.312,0.495,0.468,0.74c-0.005-0.3-0.01-0.6-0.013-0.9c-0.065-6.442,0.515-13.144,1.968-20.312
							c0.017-0.085,0.054-0.102,0.067-0.108c0.051-0.023,0.128-0.01,0.187,0.034c0.069,0.051,0.095,0.122,0.076,0.213
							c-1.975,9.772-2.343,18.826-1.588,27.254c0.016,0.177,0.032,0.355,0.049,0.532c0.121-0.116,0.243-0.233,0.365-0.348
							c4.109-3.91,7.604-8.18,10.548-12.756c0.034-0.053,0.068-0.077,0.137-0.041c0.059,0.031,0.108,0.093,0.126,0.158
							c0.015,0.056,0.006,0.108-0.027,0.16c-3.044,4.745-6.677,9.158-10.976,13.188c-0.04,0.033-0.081,0.066-0.121,0.099
							c0.005,0.052,0.011,0.103,0.016,0.155c0.492,4.725,1.308,9.043,2.413,13.16c0.007,0.024,0.013,0.049,0.02,0.073
							c0.017,0.018,0.034,0.035,0.051,0.052c0.044,0.045,0.059,0.103,0.042,0.171c-0.006,0.024-0.012,0.049-0.018,0.073
							c0.007,0.024,0.013,0.049,0.02,0.073c0.999,3.628,2.296,7.355,4.022,11.316c0.094,0.216,0.189,0.432,0.285,0.647
							c0.06-0.226,0.121-0.451,0.183-0.676c1.738-6.359,4.329-12.265,7.534-17.435c0.046-0.075,0.113-0.1,0.2-0.075
							c0.062,0.018,0.117,0.062,0.136,0.109c0.009,0.022,0.016,0.058-0.02,0.117c-3.373,5.443-6.051,11.675-7.778,18.375
							c-0.008,0.032-0.017,0.064-0.025,0.096c0.014,0.031,0.028,0.061,0.042,0.092c3.142,6.855,7.326,13.871,13.549,21.285
							c0.057,0.067,0.041,0.107,0.033,0.126C403.185,369.367,403.101,369.424,403.021,369.429
							C403.021,369.429,403.021,369.429,403.021,369.429z"/>
					</g>
					<g>
						<path style="fill:#53A4F4;" d="M388.064,373.148c0.085-0.007-5.226-6.889-7.501-15.372
							c-2.451-8.289-1.866-18.178,5.929-19.733c10.965-1.809,5.914-19.645,13.609-18.839c7.315,1.277,5.226,4.732,11.563-3.809
							c6.757-8.389,13.495-4.587,23.339-7.773c10.273-2.783,12.032,10.039,0.909,16.267c-11.044,6.918,2.212,1.869,0.267,8.442
							c-1.542,5.5-25.134,9.93-20.15,12.767c5.002,2.273,5.494,7.59,0.723,10.895C405.491,363.301,388.099,372.789,388.064,373.148z
							"/>
						<path style="opacity:0.39;fill:#092B96;" d="M386.624,379.731c-0.04-0.04-0.055-0.092-0.045-0.156
							c1.461-10.249,5.49-24.004,13.557-36.135c0.021-0.032,0.042-0.063,0.063-0.095c-0.006-0.035-0.013-0.071-0.019-0.107
							c-0.73-4.032-0.626-8.355-0.284-12.599c0.111-1.4,0.247-2.806,0.386-4.217c0.008-0.081,0.039-0.12,0.109-0.139
							c0.099-0.026,0.226,0.012,0.256,0.111c0.008,0.024,0.01,0.053,0.007,0.084c-0.136,1.379-0.27,2.753-0.38,4.121
							c-0.318,3.912-0.436,7.902,0.127,11.666c0.031,0.209,0.063,0.417,0.095,0.625c0.124-0.184,0.248-0.368,0.373-0.551
							c3.447-5.049,7.542-9.868,12.529-14.512c0.044-0.041,0.088-0.082,0.132-0.123c0,0-0.049-0.16-0.049-0.16
							c-0.01-0.035-0.009-0.057-0.002-0.085c1.198-4.392,3.11-8.762,5.683-12.867c0.045-0.073,0.097-0.103,0.169-0.097
							c0.09,0.007,0.172,0.072,0.183,0.146c0.005,0.036-0.006,0.076-0.034,0.121c-2.357,3.759-4.161,7.754-5.358,11.777
							c-0.083,0.28-0.166,0.561-0.247,0.841c0.222-0.202,0.444-0.404,0.667-0.604c4.794-4.303,10.21-8.294,16.552-11.936
							c0.075-0.043,0.112-0.027,0.125-0.021c0.052,0.023,0.092,0.09,0.098,0.162c0.007,0.085-0.029,0.152-0.109,0.198
							c-8.642,4.971-15.683,10.674-21.514,16.806c-0.123,0.129-0.245,0.258-0.367,0.388c0.168,0.014,0.335,0.029,0.502,0.044
							c5.65,0.503,11.164,0.308,16.545-0.504c0.063-0.01,0.103,0,0.121,0.075c0.016,0.065,0.002,0.142-0.035,0.199
							c-0.032,0.048-0.077,0.076-0.137,0.085c-5.574,0.848-11.287,1.035-17.152,0.468c-0.051-0.008-0.103-0.017-0.155-0.025
							c-0.035,0.038-0.071,0.076-0.106,0.114c-3.224,3.49-5.927,6.955-8.288,10.504c-0.014,0.021-0.028,0.042-0.042,0.063
							c-0.002,0.024-0.004,0.049-0.005,0.073c-0.005,0.063-0.039,0.112-0.1,0.144c-0.022,0.012-0.045,0.023-0.067,0.035
							c-0.014,0.021-0.028,0.042-0.042,0.063c-2.064,3.146-4.007,6.582-5.841,10.493c-0.1,0.214-0.199,0.427-0.298,0.641
							c0.209-0.104,0.419-0.207,0.628-0.309c5.923-2.895,12.068-4.849,18.068-5.857c0.087-0.014,0.15,0.019,0.188,0.1
							c0.028,0.059,0.031,0.129,0.008,0.174c-0.011,0.021-0.033,0.05-0.101,0.062c-6.315,1.062-12.763,3.167-18.935,6.295
							c-0.03,0.015-0.059,0.03-0.089,0.045c-0.014,0.031-0.028,0.061-0.042,0.092c-3.072,6.886-5.577,14.662-7.035,24.231
							c-0.013,0.087-0.054,0.102-0.073,0.108C386.779,379.813,386.681,379.788,386.624,379.731
							C386.624,379.731,386.624,379.731,386.624,379.731z"/>
					</g>
					<g>
						<path style="fill:#328DD8;" d="M366.809,385.873c0,0,60.486-46.235,79.524-42.237c19.038,3.998,7.027,24.071-5.21,23.345
							c-12.237-0.726-1.41,19.242-16.014,16.849c-14.604-2.393-14.829,2.811-23.552,1.119
							C392.833,383.257,366.809,385.873,366.809,385.873z"/>
					</g>
				</g>
				<g>
					<path style="fill:#0D5DBC;" d="M356.964,218.913H121.232c-4.397,0-7.962,3.564-7.962,7.962v162.906
						c0,4.397,3.565,7.962,7.962,7.962h235.732c4.397,0,7.962-3.564,7.962-7.962V226.875
						C364.926,222.477,361.361,218.913,356.964,218.913z"/>
					<path style="fill:#D4ECFF;" d="M134.191,386.172c-0.818,0-1.483-0.665-1.483-1.483V231.966c0-0.817,0.665-1.482,1.483-1.482
						h195.652c0.818,0,1.483,0.665,1.483,1.482V384.69c0,0.818-0.665,1.483-1.483,1.483H134.191z"/>
					<path style="fill:#B3D9FF;" d="M329.843,230.484H134.191c-0.818,0-1.483,0.665-1.483,1.482v4.24h190.268
						c0.818,0,1.483,0.665,1.483,1.482v148.484h5.384c0.818,0,1.483-0.665,1.483-1.483V231.966
						C331.326,231.149,330.661,230.484,329.843,230.484z"/>
					<path style="fill:#FFFFFF;" d="M356.057,308.328c0-4.473-3.626-8.099-8.099-8.099c-4.473,0-8.099,3.626-8.099,8.099
						c0,4.473,3.626,8.099,8.099,8.099C352.431,316.427,356.057,312.801,356.057,308.328z"/>
					<path style="fill:#0061EF;" d="M134.194,386.171h106.892c-5.893,4.31-12.121,8.183-18.641,11.574H121.234
						c-4.398,0-7.964-3.566-7.964-7.964V226.872c0-4.391,3.566-7.957,7.964-7.957h170.399c1.4,3.785,2.64,7.643,3.719,11.567
						H134.194c-0.824,0-1.488,0.664-1.488,1.488V384.69C132.706,385.507,133.37,386.171,134.194,386.171z"/>
				</g>
				<path style="fill:#1D88F2;" d="M190.537,280.274"/>
				<path style="fill:#FFFFFF;" d="M122.748,292.53L122.748,292.53c-0.833,0-1.515,0.682-1.515,1.515V329.4
					c0,0.833,0.682,1.515,1.515,1.515l0,0c0.833,0,1.515-0.682,1.515-1.515v-35.355C124.264,293.212,123.582,292.53,122.748,292.53z
					"/>
				<path style="fill:#0D5DBC;" d="M168.239,341.69c-0.19-0.495-0.32-1.028-0.381-1.606
					C167.912,340.373,168.034,340.951,168.239,341.69z"/>
				<g>
					<g>
						<path style="fill:#53A4F4;" d="M337.035,203.513l0.81-0.566c-0.257-1.488-1.559-3.711-6.024-6.345
							c-8.262-4.873-16.394-13-16.031-17.316c0,0-3.9,10.983,1.901,15.512C323.136,199.049,334.013,196.81,337.035,203.513z"/>
						<path style="fill:#328DD8;" d="M337.365,203.283l0.481-0.336c-0.256-1.488-1.559-3.711-6.024-6.344
							c-8.262-4.873-16.394-13-16.031-17.316c0,0-1.141,9.299,4.63,13.403C326.118,196.741,334.009,195.407,337.365,203.283z"/>
					</g>
					<g>
						<path style="fill:#53A4F4;" d="M335.586,197.911c0.83,1.719,1.308,3.191,1.586,4.333l0.436-0.236
							c-0.109-3.781-0.923-10.792-4.995-17.292c-5.95-9.499-13.305-21.463-13.305-21.463s-3.119,14.377,6.917,23.027
							C331.231,190.593,334.025,194.679,335.586,197.911z"/>
						<g>
							<path style="fill:#328DD8;" d="M326.199,179.528c5.263,7.692,10.21,16.816,10.937,21.416c0.102-0.404,0.214-0.832,0.33-1.267
								c-0.365-3.955-1.514-9.63-4.853-14.96c-5.95-9.499-13.305-21.463-13.305-21.463S319.35,169.517,326.199,179.528z"/>
						</g>
					</g>
					<g>
						<path style="fill:#53A4F4;" d="M339.154,200.835c-1.371,0.975-2.579,1.608-3.53,2.019l0.27,0.344
							c3.268-0.654,9.239-2.399,14.284-6.898c7.372-6.575,16.678-14.734,16.678-14.734s-12.952-0.582-18.982,9.416
							C344.867,195.968,341.731,199.001,339.154,200.835z"/>
						<g>
							<path style="fill:#328DD8;" d="M353.736,189.96c-5.904,5.71-13.099,11.358-16.987,12.67c0.366,0.029,0.755,0.063,1.15,0.099
								c3.382-0.903,8.142-2.74,12.279-6.429c7.372-6.575,16.678-14.734,16.678-14.734S361.42,182.528,353.736,189.96z"/>
						</g>
					</g>
					<g>
						<path style="fill:#53A4F4;" d="M337.955,204.127c0.212,2.111,0.389,3.568,0.459,4.564l0.415,0.005
							c0.186-3.571,0.505-9.74,0.398-13.867c-0.157-6.076,1.707-8.556,2.87-18.783c1.163-10.228-1.552-24.76-1.552-24.76
							s-7.139,12.917-4.896,27.426C337.891,193.222,337.019,194.824,337.955,204.127z"/>
						<path style="fill:#328DD8;" d="M338.441,208.692l0.078,0.001l0.382-1.385c0.185-3.634,0.421-8.847,0.326-12.477
							c-0.157-6.076,1.707-8.556,2.87-18.783c1.163-10.228-1.552-24.76-1.552-24.76s-2.915,20.165-2.301,29.436
							C338.811,189.301,338.492,206.211,338.441,208.692z"/>
					</g>
					<g>
						<path style="fill:#53A4F4;" d="M353.317,162.327c-0.343,2.339-7.045,15.983-11.173,25.104
							c-3.23,7.138-2.365,13.837-1.837,16.416l0.828-0.018c-0.563-3.111-0.754-2.629-0.141-7.513
							c0.672-5.357,8.213-9.23,12.784-19.624C358.351,166.3,353.66,159.989,353.317,162.327z"/>
						<path style="fill:#328DD8;" d="M353.574,161.868c0.139,3.309,0.137,14.577-5.79,20.697
							c-6.867,7.089-8.943,14.799-6.712,21.267l0.064-0.001c-0.563-3.111-0.754-2.629-0.141-7.513
							c0.672-5.357,8.213-9.23,12.784-19.624C357.845,167.45,354.587,161.441,353.574,161.868z"/>
					</g>
					<g>
						<path style="fill:#B3D9FF;" d="M325.729,202.853l2.368,14.016c0.221,1.306,1.352,2.263,2.677,2.263h13.692
							c1.325,0,2.456-0.956,2.677-2.263l2.368-14.016c0.214-1.267-0.762-2.423-2.048-2.423h-19.688
							C326.491,200.43,325.515,201.585,325.729,202.853z"/>
						<path style="opacity:0.56;fill:#53A4F4;" d="M349.498,202.144c0-0.001,0-0.003-0.001-0.004
							c-0.024-0.132-0.059-0.259-0.107-0.383c-0.003-0.009-0.007-0.017-0.011-0.026c-0.046-0.114-0.101-0.222-0.166-0.326
							c-0.012-0.02-0.026-0.038-0.039-0.058c-0.061-0.09-0.126-0.176-0.2-0.255c-0.028-0.031-0.06-0.057-0.09-0.086
							c-0.067-0.064-0.134-0.126-0.209-0.18c-0.05-0.037-0.105-0.066-0.159-0.098c-0.065-0.038-0.127-0.079-0.197-0.111
							c-0.079-0.036-0.163-0.06-0.246-0.086c-0.054-0.017-0.105-0.039-0.16-0.051c-0.144-0.032-0.293-0.05-0.448-0.05h-6.234
							h-13.454c-1.186,0-2.096,0.986-2.064,2.133h17.582c-0.003,0.096,0,0.191-0.016,0.289l-2.368,14.016
							c-0.221,1.306-1.352,2.263-2.677,2.263h6.234c1.325,0,2.456-0.956,2.677-2.263l2.368-14.016
							C349.553,202.609,349.539,202.372,349.498,202.144z"/>
					</g>
				</g>
				<path style="fill:#F4D1AE;" d="M297.865,397.256"/>
			</g>
			<g>
				<g>
					<path style="fill:#FFFFFF;" d="M309.486,197.493v188.661H162.643V188.398c0,5.032,4.07,9.094,9.094,9.094H309.486z"/>
					<path style="fill:#B3D9FF;" d="M293.216,179.094v16.882H171.733c-4.171,0-7.573-3.395-7.573-7.573v-1.743
						c0-4.171,3.402-7.566,7.573-7.566H293.216z"/>
					<path style="fill:#FFFFFF;" d="M173.636,184.688h125.804v-1.522H173.636c-2.154,0-3.912,1.758-3.912,3.92v0.898
						c0,2.162,1.758,3.92,3.912,3.92h132.707v-1.522H173.636c-1.317,0-2.39-1.081-2.39-2.398v-0.898
						C171.246,185.761,172.32,184.688,173.636,184.688z"/>
					<path style="fill:#FFFFFF;" d="M171.733,179.094h121.483v-1.522H171.733c-5.023,0-9.095,4.064-9.095,9.088v1.743
						c0,5.023,4.072,9.095,9.095,9.095H309.5v-1.522H171.733c-4.171,0-7.573-3.395-7.573-7.573v-1.743
						C164.16,182.488,167.563,179.094,171.733,179.094z"/>
					<path style="fill:#FFFFFF;" d="M306.344,191.904"/>
					<path style="fill:#53A4F4;" d="M306.346,191.904v4.072H171.733c-0.692,0-1.37-0.091-2.009-0.274v-7.718
						c0,2.162,1.758,3.92,3.912,3.92H306.346z"/>
				</g>
				<g>
					<g>
						<rect x="214.76" y="260.888" style="fill:#C3E2FC;" width="18.113" height="1.763"/>
						<rect x="214.76" y="265.653" style="fill:#C3E2FC;" width="18.113" height="1.763"/>
						<rect x="214.76" y="270.419" style="fill:#C3E2FC;" width="18.113" height="1.763"/>
						<rect x="214.76" y="275.185" style="fill:#C3E2FC;" width="18.113" height="1.763"/>
						<rect x="214.76" y="279.951" style="fill:#C3E2FC;" width="18.113" height="1.763"/>
						<rect x="214.76" y="284.717" style="fill:#C3E2FC;" width="18.113" height="1.763"/>
						<rect x="180.845" y="289.483" style="fill:#C3E2FC;" width="52.029" height="1.763"/>
						<rect x="180.845" y="294.249" style="fill:#C3E2FC;" width="52.029" height="1.763"/>
						<rect x="180.845" y="299.015" style="fill:#C3E2FC;" width="52.029" height="1.763"/>
						<rect x="180.845" y="303.781" style="fill:#C3E2FC;" width="52.029" height="1.763"/>
						<rect x="180.845" y="308.547" style="fill:#C3E2FC;" width="52.029" height="1.763"/>
					</g>
					<g>
						<rect x="267.46" y="347.384" style="fill:#C3E2FC;" width="25.271" height="1.709"/>
						<rect x="267.46" y="352.004" style="fill:#C3E2FC;" width="25.271" height="1.709"/>
						<rect x="267.46" y="356.623" style="fill:#C3E2FC;" width="25.271" height="1.709"/>
						<rect x="267.46" y="361.243" style="fill:#C3E2FC;" width="25.271" height="1.709"/>
						<rect x="267.46" y="365.862" style="fill:#C3E2FC;" width="25.271" height="1.709"/>
					</g>
					<g>
						<rect x="267.46" y="370.333" style="fill:#C3E2FC;" width="25.271" height="1.763"/>
						<rect x="267.46" y="375.099" style="fill:#C3E2FC;" width="25.271" height="1.763"/>
					</g>
					<g>
						<rect x="235.458" y="347.384" style="fill:#C3E2FC;" width="26.874" height="1.709"/>
						<rect x="235.458" y="352.004" style="fill:#C3E2FC;" width="26.874" height="1.709"/>
						<rect x="235.458" y="356.623" style="fill:#C3E2FC;" width="26.874" height="1.709"/>
						<rect x="235.458" y="361.243" style="fill:#C3E2FC;" width="26.874" height="1.709"/>
						<rect x="235.458" y="365.862" style="fill:#C3E2FC;" width="26.874" height="1.709"/>
					</g>
					<g>
						<rect x="235.458" y="370.333" style="fill:#C3E2FC;" width="26.874" height="1.763"/>
						<rect x="235.458" y="375.099" style="fill:#C3E2FC;" width="26.874" height="1.763"/>
					</g>
					<g>
						<rect x="267.228" y="289.483" style="fill:#C3E2FC;" width="25.502" height="1.763"/>
						<rect x="240.368" y="260.614" style="fill:#B3D9FF;" width="52.362" height="25.715"/>
						<rect x="180.845" y="315.316" style="fill:#53A4F4;" width="111.886" height="25.715"/>
						<rect x="267.228" y="294.249" style="fill:#C3E2FC;" width="25.502" height="1.763"/>
						<rect x="240.778" y="289.462" style="fill:#B3D9FF;" width="21.849" height="20.848"/>
						<rect x="267.228" y="299.015" style="fill:#C3E2FC;" width="25.502" height="1.763"/>
						<rect x="267.228" y="303.781" style="fill:#C3E2FC;" width="25.502" height="1.763"/>
						<rect x="267.228" y="308.547" style="fill:#C3E2FC;" width="25.502" height="1.763"/>
					</g>
					<g>
						<rect x="180.845" y="260.888" style="fill:#53A4F4;" width="30.637" height="25.355"/>
					</g>
					<polygon style="fill:#B3D9FF;" points="180.845,346.343 229.009,346.702 229.009,376.983 180.845,376.625 					"/>
					<g>
						<rect x="180.845" y="207.867" style="fill:#FFAA00;" width="111.886" height="43.513"/>
						<g>
							<path style="fill:#FFFFFF;" d="M197.581,246.073h-2.973v-29.726h4.204l6.88,21.488v-21.488h2.93v29.726h-3.44l-7.601-24.036
								V246.073z"/>
							<path style="fill:#FFFFFF;" d="M226.84,229.511v2.973h-7.262v10.574h8.918v3.015h-12.23v-29.726h12.23v3.015h-8.918v10.149
								H226.84z"/>
							<path style="fill:#FFFFFF;" d="M243.698,246.073h-4.544l-4.077-29.726h3.228l3.482,25.31l3.312-25.267h3.27l3.27,25.31
								l3.355-25.352h2.888l-4.034,29.726h-4.374l-2.845-20.171L243.698,246.073z"/>
							<path style="fill:#FFFFFF;" d="M277.671,223.481v0.807h-3.143v-0.977c0-2.675-1.019-4.247-3.397-4.247
								c-2.378,0-3.397,1.571-3.397,4.204c0,6.667,9.979,7.304,9.979,15.67c0,4.501-2.166,7.432-6.71,7.432
								c-4.544,0-6.667-2.93-6.667-7.432v-1.699h3.1v1.868c0,2.675,1.104,4.247,3.482,4.247c2.378,0,3.482-1.571,3.482-4.247
								c0-6.625-9.937-7.262-9.937-15.628c0-4.586,2.123-7.432,6.582-7.432C275.548,216.049,277.671,218.98,277.671,223.481z"/>
						</g>
					</g>
				</g>
				<path style="fill:#76B4FF;" d="M299.442,184.688v5.51l-22.263,0.183H173.636c-1.317,0-2.39-1.081-2.39-2.398v-0.898
					c0-1.324,1.073-2.398,2.39-2.398H299.442z"/>
			</g>
			<g>
				<path style="fill:#0061EF;" d="M174.203,337.797c-6.882-3.788-6.376,2.083-6.376,2.083c0.535,5.842,7.368,7.823,12.066,8.495
					l1.048-6.847C179.311,340.619,177.081,339.382,174.203,337.797z"/>
				<path style="fill:#FFA683;" d="M199.425,341.222l-15.026,2.857c0,0-1.338-0.215-3.604-1.479l-0.8,4.935
					c1.944,0.713,5.163,1.707,5.351,1.436l14.521-6.124c2.483,0,3.904-1.578,3.904-1.578L199.425,341.222z"/>
				<path style="fill:#FFA683;" d="M166.69,338.702l12.911-23.791c0.234-0.374,0.74-0.935,1.169-1.038
					c1.141-0.272,3.445-0.534,5.073,1.165c0.207,0.216,0.101,0.58-0.19,0.651l-3.596,0.679c-0.599,0.113-1.089,0.545-1.276,1.125
					l-7.693,23.86L166.69,338.702z"/>
				<polygon style="fill:#0061EF;" points="173.088,341.354 176.44,330.958 171.306,328.15 165.09,338.071 				"/>
				<g>
					<polygon style="fill:#084184;" points="163.437,362.249 164.501,380.665 155.431,406.046 159.051,406.066 175.697,380.918 
						174.434,362.988 					"/>
					<path style="fill:#0D5DBC;" d="M164.543,362.546c0,0,0.695,2.525,4.167,8.46c3.472,5.935,8.081,11.427,8.081,11.427
						l1.226,23.591h3.741l3.871-24.013c0.124-0.629,0.052-1.281-0.206-1.868l-8.506-19.365L164.543,362.546z"/>
					<linearGradient id="SVGID_1_" gradientUnits="userSpaceOnUse" x1="169.8013" y1="336.8222" x2="169.7193" y2="336.6954">
						<stop  offset="0" style="stop-color:#FF3688"/>
						<stop  offset="1" style="stop-color:#FF85BC"/>
					</linearGradient>
					<path style="fill:url(#SVGID_1_);" d="M170.024,336.53c-0.039,0.025-0.261,0.167-0.548,0.426
						C169.628,336.787,169.81,336.644,170.024,336.53z"/>
					<path style="fill:#0061EF;" d="M168.773,335.791c2.18-0.178,4.223,1.085,5.268,3.007c1.431,2.63,3.792,7.439,3.87,10.663
						l0.348,14.496c0,0-7.796,3.85-15.977-1.155c0,0,2.977-8.485,1.636-16.94C162.889,339.371,165.441,336.064,168.773,335.791z"/>
					<path style="fill:#0D5DBC;" d="M175.196,364.95c0.05-3.756-0.714-10.459-1.122-13.743c-0.135-1.089-0.752-2.036-1.65-2.666
						c-2.378-1.667-3.601-4.793-4.169-6.798c1.378,3.699,5.685,5.435,9.491,6.241c0.099,0.518,0.16,1.012,0.167,1.477l0.342,14.499
						C178.255,363.96,177.091,364.531,175.196,364.95z"/>
					<path style="fill:#EF8160;" d="M176.954,329.367l-0.518,1.591l-4.27-2.337l3.181-5.868
						C175.782,324.694,176.535,327.708,176.954,329.367z"/>
				</g>
				<path style="fill:#FFA683;" d="M173.793,330.516c-0.288-1.841-0.646-3.566-2.275-3.311c-1.628,0.255-3.829,2.478-3.541,4.319
					c0.101,0.643,0.381,1.202,0.764,1.654h-1.661v3.453h4.435v-2.316c0.027-0.004,0.054,0,0.08-0.004
					C173.224,334.056,174.081,332.357,173.793,330.516z"/>
				<path style="fill:#084184;" d="M169.568,330.791c0,0-0.738-0.889-1.219-0.302c-0.48,0.587-0.721,1.468,0.667,1.975
					c0,0-0.427,2.375-2.509,2.082c-2.082-0.294-3.924-2.322-3.043-5.125c0.881-2.803,1.655-4.911,4.804-4.778
					c3.15,0.133,5.418-0.133,5.205-0.934c0,0,1.415,3.73,0.12,4.2c-1.295,0.471-2.763,0.471-2.763,0.471
					S170.493,330.693,169.568,330.791z"/>
				<path style="fill:#EF8160;" d="M171.515,336.631v-2.279l-0.036-0.035c0,0-0.828,0.096-1.81-0.173c0,0,0.655,0.712,1.04,0.885
					c0.167,0.075,0.189,0.801,0.161,1.601H171.515z"/>
				<path style="fill:#084184;" d="M178.151,406.019v2.724h7.431c0.422,0,0.587-0.547,0.236-0.781
					c-1.087-0.724-2.827-1.721-4.446-1.943H178.151z"/>
				<path style="fill:#084184;" d="M155.441,406.019v2.724h7.431c0.422,0,0.587-0.547,0.236-0.781
					c-1.087-0.724-2.828-1.721-4.446-1.943H155.441z"/>
				<path style="fill:#084184;" d="M175.196,365.646l8.793,16.979l-3.221,24.095h0.99l3.871-24.013
					c0.124-0.629,0.052-1.281-0.206-1.868l-7.585-17.267L175.196,365.646z"/>
				<path style="fill:#2886F7;" d="M164.276,363.841c2.176-3.829,2.445-13.496,0.835-17.572c-2.145-5.431,1.559-9.818,1.559-9.818
					c-2.196,1.278-3.549,4.387-2.753,9.412c1.341,8.455-1.636,16.94-1.636,16.94C162.952,363.212,163.616,363.543,164.276,363.841z"
					/>
			</g>
			<g>
				<g>
					<path style="fill:#D4ECFF;" d="M402.835,329.7h-73.512v48.411c0,10.843,8.79,19.634,19.633,19.634h34.245
						c10.843,0,19.633-8.79,19.633-19.634V329.7z"/>
					<path style="fill:#FFFFFF;" d="M333.778,378.111V329.7h-4.455v48.411c0,10.843,8.79,19.633,19.633,19.633h4.455
						C342.568,397.744,333.778,388.954,333.778,378.111z"/>
					<path style="fill:#B3D9FF;" d="M381.267,329.7v48.411c0,10.843-8.79,19.633-19.633,19.633h21.568
						c10.843,0,19.633-8.79,19.633-19.633V329.7H381.267z"/>
					<path style="fill:#B3D9FF;" d="M402.808,329.675c0-3.271-16.45-5.923-36.742-5.923c-20.292,0-36.742,2.652-36.742,5.923
						c0,3.272,16.45,5.923,36.742,5.923C386.357,335.598,402.808,332.947,402.808,329.675z"/>
					<path style="fill:#FFAA00;" d="M366.065,334.225c-22.358,0-33.922-2.934-35.302-4.55c1.38-1.616,12.944-4.55,35.302-4.55
						c22.358,0,33.922,2.935,35.302,4.55C399.988,331.291,388.423,334.225,366.065,334.225z"/>
					<path style="fill:#FF6700;" d="M360.732,326.603c13.774,0,25.312,2.693,28.377,6.314c7.426-0.988,11.477-2.326,12.259-3.241
						c-1.38-1.616-12.944-4.55-35.302-4.55c-22.358,0-33.922,2.935-35.302,4.55c0.392,0.459,1.607,1.024,3.654,1.597
						C339.125,328.51,349.139,326.603,360.732,326.603z"/>
				</g>
				<path style="fill:#D4ECFF;" d="M395.106,344.247L395.106,344.247c-0.008,1.522,1.164,2.882,2.859,3.228
					c3.165,0.648,5.873,2.084,7.957,4.248c2.766,2.872,4.278,6.905,4.255,11.356c-0.022,4.451-1.573,8.469-4.368,11.313
					c-2.105,2.143-4.827,3.552-7.999,4.169c-1.698,0.33-2.883,1.678-2.891,3.2v0c-0.011,2.11,2.208,3.691,4.571,3.264
					c11.403-2.057,17.947-11.068,18.001-21.91c0.054-10.842-6.401-19.917-17.782-22.087
					C397.35,340.579,395.116,342.137,395.106,344.247z"/>
				<path style="fill:#FFFFFF;" d="M395.301,382.24L395.301,382.24c0.008-1.557,1.193-2.936,2.891-3.274
					c3.172-0.631,5.894-2.073,7.999-4.266c2.795-2.91,4.347-7.021,4.37-11.575c0.023-4.554-1.488-8.68-4.254-11.617
					c-2.084-2.213-4.791-3.683-7.956-4.345c-1.695-0.355-2.866-1.746-2.858-3.303c0.003-0.694,0.255-1.318,0.648-1.846
					c-0.625,0.582-1.03,1.354-1.034,2.234c-0.008,1.522,1.164,2.882,2.859,3.228c3.165,0.648,5.873,2.084,7.957,4.248
					c2.767,2.872,4.278,6.905,4.255,11.356c-0.022,4.451-1.573,8.469-4.368,11.313c-2.105,2.143-4.827,3.552-7.999,4.169
					c-1.698,0.33-2.883,1.678-2.891,3.2v0c-0.004,0.804,0.319,1.529,0.848,2.098C395.476,383.379,395.298,382.834,395.301,382.24z"
					/>
				<path style="fill:#B3D9FF;" d="M399.709,341.029c-1.467-0.28-2.885,0.218-3.751,1.142c0.623-0.174,1.31-0.218,2.009-0.091
					c11.382,2.079,17.839,10.76,17.787,21.13c-0.052,10.37-6.594,18.987-17.996,20.952c-0.591,0.102-1.173,0.084-1.714-0.033
					c0.866,0.749,2.133,1.133,3.446,0.896c11.403-2.057,17.947-11.068,18.001-21.91C417.545,352.274,411.09,343.199,399.709,341.029
					z"/>
			</g>
			<g>
				<path style="fill:#B3D9FF;" d="M113.464,190.407c6.005,0,6.323-8.939,0.33-9.321c-0.057-0.004-0.114-0.007-0.171-0.01
					c0-0.037,0.003-0.074,0.003-0.112c0-6.389-5.18-11.569-11.569-11.569c-2.014,0-3.908,0.516-5.557,1.421
					c-2.026-3.771-6.007-6.335-10.588-6.335c-6.634,0-12.013,5.378-12.013,12.013c0,0.356,0.019,0.708,0.049,1.056
					c-1.23-0.353-2.527-0.546-3.87-0.546c-4.84,0-9.105,2.458-11.616,6.193c-2.066,3.073,0.209,7.211,3.912,7.211H113.464z"/>
				<path style="fill:#B3D9FF;" d="M188.15,131.747c5.916,0,6.229-8.807,0.325-9.184c-0.056-0.004-0.112-0.007-0.168-0.01
					c0-0.037,0.003-0.073,0.003-0.11c0-6.295-5.103-11.398-11.398-11.398c-1.984,0-3.85,0.508-5.475,1.4
					c-1.996-3.715-5.918-6.242-10.431-6.242c-6.536,0-11.835,5.299-11.835,11.835c0,0.351,0.018,0.697,0.048,1.04
					c-1.211-0.348-2.489-0.538-3.813-0.538c-4.768,0-8.97,2.421-11.445,6.102c-2.035,3.027,0.206,7.104,3.854,7.104H188.15z"/>
				<path style="fill:#B3D9FF;" d="M402.085,191.439c-5.324,0-5.606-7.926-0.293-8.265c0.05-0.003,0.101-0.006,0.151-0.009
					c0-0.033-0.002-0.066-0.002-0.099c0-5.665,4.592-10.258,10.257-10.258c1.786,0,3.465,0.457,4.927,1.26
					c1.797-3.343,5.326-5.617,9.387-5.617c5.882,0,10.651,4.769,10.651,10.651c0,0.316-0.016,0.628-0.043,0.936
					c1.09-0.313,2.24-0.484,3.431-0.484c4.291,0,8.073,2.179,10.299,5.491c1.832,2.724-0.185,6.393-3.468,6.393H402.085z"/>
				<path style="fill:#B3D9FF;" d="M348.67,125.559c-6.32,0-6.655-9.41-0.348-9.812c0.06-0.004,0.12-0.007,0.18-0.01
					c0-0.039-0.003-0.078-0.003-0.117c0-6.726,5.452-12.178,12.178-12.178c2.12,0,4.113,0.543,5.849,1.495
					c2.133-3.969,6.323-6.669,11.145-6.669c6.984,0,12.645,5.661,12.645,12.645c0,0.375-0.02,0.745-0.052,1.112
					c1.294-0.372,2.66-0.575,4.074-0.575c5.095,0,9.584,2.587,12.228,6.519c2.175,3.234-0.22,7.59-4.117,7.59H348.67z"/>
				<g>
					<circle style="fill:#FFAA00;" cx="411.424" cy="116.143" r="30.812"/>
					<path style="opacity:0.28;fill:#FF6700;" d="M414.236,85.465c8.083,4.473,13.558,13.084,13.558,22.976
						c0,14.495-11.75,26.245-26.245,26.245c-7.587,0-14.418-3.223-19.21-8.37c4.203,12.017,15.634,20.64,29.085,20.64
						c17.017,0,30.812-13.795,30.812-30.812C442.236,100.075,429.934,86.886,414.236,85.465z"/>
				</g>
			</g>
			<g>
				<path style="fill:#FFA683;" d="M339.526,378.057l-2.428,3.474l-11.157-5.43l0.001,0c0,0-0.21-1.96-0.76-2.018
					c-0.281-0.03-0.43,0.311-0.509,0.652c-0.549-0.535-1.141-1.023-1.471-1.022c-0.74,0.004,1.121,2.989,1.413,3.541
					c0.553,1.046,7.676,5.987,15.648,9.496l3.175-5.964L339.526,378.057z"/>
				<path style="fill:#084184;" d="M325.238,374.428l-1.607-6.737c-0.05-0.215-0.267-0.37-0.484-0.347l-0.739,0.108
					c-0.218,0.023-0.354,0.217-0.304,0.431l1.607,6.738c0.023,0.218,0.219,0.375,0.437,0.352l0.739-0.108
					C325.103,374.841,325.261,374.646,325.238,374.428z"/>
				<path style="fill:#084184;" d="M324.908,381.65c-2.43,0.212-24.249,21.028-24.249,21.028l4.999-0.07l19.018-11.201
					c0,0,12.943,10.336,23.966,10.514c4.787,0.077,4.948-5.798,4.948-5.798S330.833,381.133,324.908,381.65z"/>
				<path style="fill:#083766;" d="M353.512,396.973c0,0-1.277,6.927-8.303,7.924l-55.167-0.274l0.232-4.442l47.777-5.45
					L353.512,396.973z"/>
				<path style="fill:#0D5DBC;" d="M345.076,371.133c0,0-2.49,0.303-3.933,2.21c-0.794,1.049-3.286,5.888-3.286,5.888l5.479,3.304
					L345.076,371.133z"/>
				<g>
					<path style="fill:#084184;" d="M343.927,363.745c0,0-1.898-0.284-2.378-1.68c-0.602-1.751,0.36-4.058,1.473-4.026
						c0,0,1.898,0.207,4.309,0.72c0.912,0.194,1.733-0.478,2.444-0.404c1.824,0.192,6.284,5.018,0.633,10.167l-4.172-2.973
						L343.927,363.745z"/>
					<path style="fill:#FFA683;" d="M351.193,364.102c-0.449-0.48-0.971-0.092-0.971-0.092s-0.007,0.008-0.02,0.022
						c-1.334-0.316-2.619-1.817-2.619-1.817c-0.681,0.899-3.678,1.526-3.678,1.526v2.003c0,1.746,1.286,3.163,2.918,3.309
						l-0.032,2.59l3.769-1.165v-3.938C351.353,366.216,351.58,364.516,351.193,364.102z"/>
					<path style="fill:#EF8160;" d="M347.867,369.539c0.263-0.158,1.576-2.023,1.576-2.023c-0.527,0.778-2.448,1.5-2.621,1.564
						l-0.031,2.562l0.981-0.303C347.736,370.505,347.731,369.621,347.867,369.539z"/>
				</g>
				<path style="fill:#FFA683;" d="M369,405.513c0,0-4.948-11.493-8.04-22.11c-1.262,0.83-2.68,1.894-4.249,2.543l9.751,19.245
					c0,0,0.773,1.958,1.933,2.036c1.16,0.077,4.087,0.643,4.11,0.4C372.556,407.085,369,405.513,369,405.513z"/>
				<path style="fill:#0061EF;" d="M357.36,372.88c-1.579-1.306-5.362-2.147-6.704-2.413c-0.314-0.062-0.631-0.07-0.947-0.024
					l-4.655,0.676c-4.302,2.518-2.934,5.738-4.466,11.37c-1.532,5.631-3.965,11.758-3.965,11.758
					c3.559,2.883,16.077,4.813,16.077,4.813c2-2.091,2.088-9.84,2.222-14.694l1.704,1.862c0,0,5.693-2.904,5.631-3.109
					C361.447,380.417,357.36,372.88,357.36,372.88z"/>
				<path style="fill:#084184;" d="M290.022,404.621l-2.209-0.207c-0.552-0.052-0.957-0.541-0.906-1.093l0.728-7.753
					c0.047-0.496,0.707-0.635,0.944-0.196c0.732,1.36,1.717,3.523,1.8,5.455L290.022,404.621z"/>
				<path style="fill:#2886F7;" d="M348.391,398.265c2.468,0.512,4.309,0.796,4.309,0.796c2-2.091,2.088-9.84,2.222-14.694
					l-1.745-3.474C353.177,380.893,352.917,392.611,348.391,398.265z"/>
				<path style="fill:#084184;" d="M352.943,398.76c-0.885,2.125-3.01,5.471-7.736,6.142l-55.165-0.28l0.019-0.27
					c9.385-0.261,45.351-1.277,50.906-1.454c6.384-0.205,7.428-4.632,7.428-4.632h0.009c2.46,0.513,4.297,0.792,4.297,0.792
					C352.784,398.965,352.868,398.872,352.943,398.76z"/>
			</g>
			<g>
				<path style="fill:#0D5DBC;" d="M166.316,163.27c0,0-1.628,0.725-2.272,1.957c-0.644,1.232-0.487,12.595-3.73,13.226
					c-3.243,0.631-9.537,1.309-9.537,1.309l0.208,2.362l16.9-2.284L166.316,163.27z"/>
				<path style="fill:#083766;" d="M163.912,180.352l9.706,9.145c0,0-4.541,4.719-15.085,2.278l-11.098-1.414l-15.604,18.567
					l-3.087-1.252l13.547-23.121c0.534-0.898,1.456-1.495,2.493-1.616L163.912,180.352z"/>
				<path style="fill:#0061EF;" d="M169.63,161.376c1.654,1.161,12.088,9.383,5.404,27.921l-11.53-9.025
					c0,0,2.13-5.563,1.604-10.086c-0.908-7.807,3.379-8.591,4.072-8.864C169.331,161.262,169.497,161.283,169.63,161.376z"/>
				<path style="fill:#084184;" d="M163.722,180.422l11.163,8.507c0,0-2.212,3.808-13.006,4.599l-10.929,1.335l-9.53,22.199
					l-3.383-0.157l6.28-26.065c0.244-1.015,0.948-1.859,1.903-2.282L163.722,180.422z"/>
				<path style="fill:#084184;" d="M154.303,168.797l-2.606-5.551c-0.082-0.178-0.298-0.273-0.482-0.214l-0.621,0.227
					c-0.185,0.059-0.268,0.251-0.186,0.429l2.606,5.551c0.059,0.185,0.257,0.286,0.442,0.227l0.621-0.227
					C154.261,169.179,154.363,168.981,154.303,168.797z"/>
				<path style="fill:#FFA683;" d="M150.83,180.208c0,0-3.694,0.514-3.358,2.359l3.512-0.443L150.83,180.208z"/>
				<g>
					<path style="fill:#FFA683;" d="M155.26,169.92c0,0-0.58-1.46-1.068-1.411c-0.249,0.025-0.317,0.347-0.324,0.657
						c-0.572-0.365-1.173-0.682-1.459-0.621c-0.641,0.137,1.51,2.389,1.862,2.815c0.109,0.131,0.419,0.36,0.867,0.645l0.881-1.68
						L155.26,169.92z"/>
					<path style="fill:#0061EF;" d="M171.336,163.679c-1.78-0.564-3.659,0.532-4.044,2.359l-1.429,6.782l-9.778-3.019l-1,2.454
						c2.307,1.469,8.701,4.8,15.015,6.146l3.293-10.764C173.917,165.975,172.996,164.205,171.336,163.679z"/>
					<path style="fill:#0D5DBC;" d="M174.906,166.795c0,0-3.046,14.394-3.698,14.844c-0.661,0.459-7.188-5.059-7.188-5.059
						c1.937,0.727,4.014,1.383,6.084,1.821l3.063-10.045L174.906,166.795z"/>
				</g>
				<path style="fill:#084184;" d="M141.37,216.913v2.695h-7.35c-0.418,0-0.581-0.541-0.233-0.773
					c1.075-0.716,2.797-1.702,4.397-1.922H141.37z"/>
				<path style="fill:#084184;" d="M131.844,208.909l-1.225,2.495l-6.601-2.676c-0.389-0.153-0.342-0.716,0.066-0.804
					c1.262-0.273,3.156-0.615,4.726-0.234L131.844,208.909z"/>
				<path style="fill:#1764AF;" d="M149.213,193.8l-8.611,23.224l0.817,0.038l9.53-22.199l10.929-1.335
					c10.793-0.791,13.006-4.599,13.006-4.599l-2.164-1.649C167.265,191.387,149.213,193.8,149.213,193.8z"/>
				<path style="fill:#2886F7;" d="M175.059,167.965c1.11,4.569,1.929,9.608,0.973,13.516c-0.792,3.24-3.311,5.799-3.311,5.799
					l2.314,2.017C178.594,179.424,177.298,172.478,175.059,167.965z"/>
				<g>
					<g>
						<g>
							<path style="fill:#FFA683;" d="M161.055,154.89c0.987-1.916,3.524-2.496,5.474-1.492c1.95,1.004,2.731,3.372,1.744,5.289
								c-0.097,0.189-0.212,0.367-0.335,0.54l0.826,2.492l-3.337,2.129l-0.202-2.802c-1.12,0.49-2.008,0.167-2.751-0.215
								C160.524,159.826,160.068,156.806,161.055,154.89z"/>
						</g>
						<path style="fill:#3F3F3F;" d="M165.766,156.565c0,0,1.15-0.509,1.336,0.526c0.186,1.035-0.69,1.888,0.484,3.56
							c1.173,1.672,1.305,1.118,0.244,4.614c-1.061,3.496,1.613,6.551,6.748,5.912c5.136-0.639,5.785-6.486,1.754-10.778
							c-4.031-4.293-4.936-6.085-7.068-8.194c-2.133-2.11-8.307-2.641-8.93,3.416c0,0,1.949,0.507,3.768,0.16l0.01,1.525
							c0.001,0.221,0.256,0.344,0.43,0.209L165.766,156.565z"/>
					</g>
					<path style="fill:#EF8160;" d="M166.006,161.639c-0.013-0.385,0.846-2.026,0.644-1.774c-0.202,0.252-1.425,1.181-1.425,1.181
						l0.201,2.802l0.874-0.557C166.148,162.529,166.011,161.807,166.006,161.639z"/>
				</g>
			</g>
		</g>
	</g>
</g>
<g id="DESIGNED_BY_FREEPIK">
	<g>
		<g id="XMLID_319_">
			<g id="XMLID_338_">
				<path id="XMLID_346_" style="fill:#1D262D;" d="M260.104,465.465c-0.432,0.443-0.803,0.931-1.108,1.453l-0.465-0.241
					c-0.067-0.298-0.349-0.503-0.659-0.466c-0.331,0.039-0.568,0.339-0.529,0.67c0.039,0.331,0.339,0.568,0.67,0.529
					c0.066-0.008,0.127-0.026,0.184-0.052l0.451,0.234c-0.251,0.554-0.433,1.139-0.539,1.744l0.747,0.132
					c0.23-1.306,0.85-2.507,1.792-3.473L260.104,465.465z"/>
				<path id="XMLID_345_" style="fill:#1D262D;" d="M265.592,463.163c-0.171,0-0.341,0.006-0.51,0.017l-0.074-0.626
					c0.188-0.149,0.296-0.389,0.266-0.645c-0.046-0.393-0.402-0.674-0.795-0.628c-0.393,0.046-0.674,0.402-0.628,0.795
					c0.03,0.254,0.189,0.461,0.404,0.564l0.074,0.624c-0.714,0.116-1.403,0.332-2.06,0.646l0.327,0.684
					c0.934-0.447,1.942-0.673,2.995-0.673c0.496,0,0.993,0.053,1.475,0.158l0.161-0.741
					C266.692,463.222,266.142,463.163,265.592,463.163z"/>
				<path id="XMLID_344_" style="fill:#1D262D;" d="M272.194,465.711c0.331-0.04,0.566-0.341,0.526-0.672
					c-0.04-0.331-0.341-0.566-0.672-0.526c-0.309,0.038-0.535,0.304-0.53,0.609l-0.416,0.363c-0.418-0.43-0.889-0.813-1.408-1.139
					l-0.404,0.641c1.134,0.715,2.021,1.726,2.563,2.925l0.69-0.313c-0.251-0.554-0.567-1.072-0.942-1.545l0.402-0.351
					C272.065,465.716,272.129,465.719,272.194,465.711z"/>
				<path id="XMLID_343_" style="fill:#1D262D;" d="M265.044,473.372c-0.386,0.023-0.775,0.035-1.157,0.035
					c-0.88,0-1.733-0.061-2.478-0.179c-0.39-0.062-0.846-0.155-1.27-0.292c1.046,1.861,3.069,3.125,5.388,3.125
					c2.855,0,5.262-1.916,5.95-4.504c-0.682,0.449-1.505,0.825-2.459,1.123C267.839,473.047,266.463,473.286,265.044,473.372z"/>
				<path id="XMLID_339_" style="fill:#1D262D;" d="M265.592,464.68c-3.352,0-6.08,2.666-6.08,5.943
					c0,0.426,0.046,0.849,0.137,1.261c0.673,0.483,2.706,0.89,5.348,0.731c2.879-0.173,5.297-0.957,6.672-2.159
					c-0.006-0.195-0.021-0.39-0.045-0.582C271.244,466.913,268.65,464.68,265.592,464.68z M263.432,471.194
					c-1.02,0-1.85-0.83-1.85-1.85c0-1.02,0.83-1.85,1.85-1.85c1.02,0,1.85,0.83,1.85,1.85
					C265.282,470.365,264.452,471.194,263.432,471.194z M268.17,470.286c-0.75,0-1.36-0.61-1.36-1.36s0.61-1.361,1.36-1.361
					c0.75,0,1.361,0.61,1.361,1.361S268.92,470.286,268.17,470.286z"/>
			</g>
			<path id="XMLID_336_" style="fill:#1D262D;" d="M281.595,466.547c-0.295-0.116-0.805-0.309-1.382-0.237
				c-0.551,0.069-0.844,0.341-0.844,1.007v0.866h2.228v1.717h-2.228v5.455h-1.932v-5.455h-1.34v-1.717h1.34v-0.888
				c0-1.68,0.896-2.783,2.568-2.783c0.643,0,1.157,0.122,1.59,0.308L281.595,466.547z"/>
			<path id="XMLID_334_" style="fill:#1D262D;" d="M286.298,469.879c-0.177-0.03-0.358-0.046-0.526-0.046
				c-0.896,0-1.51,0.548-1.51,1.614v3.908h-1.932v-7.172h1.873v0.785c0.451-0.673,1.14-0.977,2.021-0.977
				c0.414,0,0.848,0.128,1.094,0.337L286.298,469.879z"/>
			<path id="XMLID_331_" style="fill:#1D262D;" d="M293.965,471.757c0,0.222-0.015,0.489-0.037,0.651h-5.085
				c0.207,1.036,0.933,1.488,1.843,1.488c0.622,0,1.295-0.252,1.813-0.688l1.133,1.243c-0.814,0.748-1.85,1.088-3.057,1.088
				c-2.198,0-3.723-1.495-3.723-3.753c0-2.258,1.48-3.797,3.627-3.797C292.544,467.99,293.958,469.522,293.965,471.757z
				 M288.851,471.091h3.175c-0.177-0.918-0.733-1.436-1.562-1.436C289.554,469.655,289.021,470.203,288.851,471.091z"/>
			<path id="XMLID_328_" style="fill:#1D262D;" d="M301.618,471.757c0,0.222-0.015,0.489-0.037,0.651h-5.085
				c0.207,1.036,0.933,1.488,1.843,1.488c0.622,0,1.295-0.252,1.814-0.688l1.132,1.243c-0.814,0.748-1.85,1.088-3.057,1.088
				c-2.198,0-3.723-1.495-3.723-3.753c0-2.258,1.48-3.797,3.627-3.797C300.197,467.99,301.611,469.522,301.618,471.757z
				 M296.504,471.091h3.175c-0.178-0.918-0.733-1.436-1.562-1.436C297.207,469.655,296.674,470.203,296.504,471.091z"/>
			<path id="XMLID_325_" style="fill:#1D262D;" d="M309.964,471.764c0,2.154-1.495,3.775-3.471,3.775
				c-0.962,0-1.643-0.378-2.109-0.933v3.708h-1.924v-10.133h1.887v0.792c0.466-0.585,1.155-0.984,2.139-0.984
				C308.469,467.99,309.964,469.61,309.964,471.764z M304.287,471.764c0,1.132,0.748,1.976,1.843,1.976
				c1.14,0,1.85-0.881,1.85-1.976c0-1.095-0.71-1.976-1.85-1.976C305.035,469.788,304.287,470.632,304.287,471.764z"/>
			<path id="XMLID_322_" style="fill:#1D262D;" d="M313.068,465.836c0,0.696-0.54,1.229-1.236,1.229
				c-0.696,0-1.229-0.533-1.229-1.229c0-0.696,0.533-1.243,1.229-1.243C312.527,464.592,313.068,465.14,313.068,465.836z
				 M312.809,475.354h-1.932v-7.172h1.932V475.354z"/>
			<path id="XMLID_320_" style="fill:#1D262D;" d="M316.032,470.736l2.701-2.554h2.368l-3.479,3.375l3.501,3.797h-2.376
				l-2.716-2.901v2.901H314.1v-10.658h1.932V470.736z"/>
		</g>
		<g>
			<path style="fill:#1D262D;" d="M184.412,475.289v-1.055c-0.527,0.718-1.391,1.23-2.387,1.23c-1.846,0-3.149-1.406-3.149-3.706
				c0-2.256,1.289-3.721,3.149-3.721c0.952,0,1.816,0.469,2.387,1.245v-3.765h1.099v9.77H184.412z M184.412,473.37v-3.208
				c-0.395-0.615-1.245-1.143-2.124-1.143c-1.421,0-2.27,1.172-2.27,2.739c0,1.567,0.85,2.724,2.27,2.724
				C183.168,474.483,184.017,473.986,184.412,473.37z"/>
			<path style="fill:#1D262D;" d="M186.932,471.744c0-2.051,1.465-3.706,3.486-3.706c2.139,0,3.398,1.67,3.398,3.794v0.279h-5.727
				c0.088,1.333,1.025,2.446,2.549,2.446c0.805,0,1.626-0.322,2.182-0.894l0.527,0.718c-0.703,0.703-1.655,1.084-2.812,1.084
				C188.44,475.465,186.932,473.956,186.932,471.744z M190.403,468.947c-1.509,0-2.256,1.274-2.314,2.358h4.643
				C192.718,470.25,192.015,468.947,190.403,468.947z"/>
			<path style="fill:#1D262D;" d="M194.607,474.351l0.571-0.791c0.469,0.542,1.362,1.011,2.329,1.011c1.084,0,1.67-0.513,1.67-1.216
				c0-1.714-4.38-0.659-4.38-3.281c0-1.098,0.952-2.036,2.636-2.036c1.201,0,2.051,0.454,2.622,1.026l-0.513,0.762
				c-0.424-0.513-1.201-0.894-2.109-0.894c-0.967,0-1.567,0.483-1.567,1.113c0,1.552,4.38,0.527,4.38,3.281
				c0,1.187-0.952,2.138-2.783,2.138C196.306,475.465,195.325,475.113,194.607,474.351z"/>
			<path style="fill:#1D262D;" d="M201.477,466.471c0-0.41,0.337-0.747,0.732-0.747c0.41,0,0.747,0.337,0.747,0.747
				c0,0.41-0.337,0.732-0.747,0.732C201.814,467.203,201.477,466.881,201.477,466.471z M201.667,475.289v-7.075h1.099v7.075H201.667
				z"/>
			<path style="fill:#1D262D;" d="M204.582,477.105l0.556-0.82c0.586,0.703,1.289,0.967,2.3,0.967c1.172,0,2.27-0.571,2.27-2.124
				v-1.011c-0.513,0.718-1.377,1.26-2.373,1.26c-1.845,0-3.149-1.377-3.149-3.662c0-2.27,1.289-3.677,3.149-3.677
				c0.952,0,1.802,0.469,2.373,1.245v-1.069h1.098v6.87c0,2.344-1.641,3.076-3.369,3.076
				C206.237,478.16,205.417,477.926,204.582,477.105z M209.709,473.253v-3.091c-0.381-0.615-1.23-1.143-2.109-1.143
				c-1.421,0-2.27,1.128-2.27,2.695c0,1.553,0.849,2.695,2.27,2.695C208.478,474.41,209.328,473.868,209.709,473.253z"/>
			<path style="fill:#1D262D;" d="M217.413,475.289v-4.629c0-1.245-0.63-1.641-1.582-1.641c-0.865,0-1.685,0.527-2.095,1.099v5.17
				h-1.099v-7.075h1.099v1.025c0.498-0.586,1.464-1.201,2.519-1.201c1.48,0,2.256,0.747,2.256,2.285v4.966H217.413z"/>
			<path style="fill:#1D262D;" d="M219.932,471.744c0-2.051,1.465-3.706,3.486-3.706c2.139,0,3.398,1.67,3.398,3.794v0.279h-5.727
				c0.088,1.333,1.025,2.446,2.549,2.446c0.806,0,1.626-0.322,2.183-0.894l0.527,0.718c-0.703,0.703-1.655,1.084-2.812,1.084
				C221.441,475.465,219.932,473.956,219.932,471.744z M223.404,468.947c-1.509,0-2.256,1.274-2.314,2.358h4.643
				C225.718,470.25,225.015,468.947,223.404,468.947z"/>
			<path style="fill:#1D262D;" d="M233.35,475.289v-1.055c-0.527,0.718-1.392,1.23-2.388,1.23c-1.846,0-3.149-1.406-3.149-3.706
				c0-2.256,1.289-3.721,3.149-3.721c0.952,0,1.817,0.469,2.388,1.245v-3.765h1.098v9.77H233.35z M233.35,473.37v-3.208
				c-0.396-0.615-1.245-1.143-2.124-1.143c-1.421,0-2.27,1.172-2.27,2.739c0,1.567,0.849,2.724,2.27,2.724
				C232.105,474.483,232.954,473.986,233.35,473.37z"/>
			<path style="fill:#1D262D;" d="M239.692,475.289v-9.77h1.098v3.765c0.572-0.776,1.421-1.245,2.388-1.245
				c1.845,0,3.149,1.465,3.149,3.721c0,2.299-1.304,3.706-3.149,3.706c-0.996,0-1.86-0.513-2.388-1.23v1.055H239.692z
				 M242.9,474.483c1.436,0,2.285-1.157,2.285-2.724c0-1.568-0.85-2.739-2.285-2.739c-0.864,0-1.728,0.527-2.109,1.143v3.208
				C241.171,473.986,242.036,474.483,242.9,474.483z"/>
			<path style="fill:#1D262D;" d="M247.528,477.061c0.161,0.073,0.425,0.117,0.601,0.117c0.483,0,0.805-0.161,1.055-0.747
				l0.469-1.069l-2.959-7.148h1.187l2.358,5.8l2.344-5.8h1.201l-3.545,8.51c-0.425,1.025-1.143,1.421-2.08,1.435
				c-0.234,0-0.601-0.044-0.805-0.103L247.528,477.061z"/>
		</g>
	</g>
</g>
</svg>
